<svg xmlns="http://www.w3.org/2000/svg" version="1.1" xmlns:xlink="http://www.w3.org/1999/xlink" width="512" height="512" x="0" y="0" viewBox="0 0 32 32" style="enable-background:new 0 0 512 512" xml:space="preserve" class=""><g><path d="M16 8.985c-.727 0-2.013 2.261-2.213 6.015h4.426c-.2-3.754-1.486-6.015-2.213-6.015zM11.785 15c.094-1.937.46-3.817 1.089-5.27A7.018 7.018 0 0 0 9.066 15zM13.787 17c.2 3.754 1.486 6.015 2.213 6.015s2.013-2.261 2.213-6.015zM20.215 15h2.72a7.02 7.02 0 0 0-3.808-5.27c.628 1.453.994 3.333 1.088 5.27z" fill="#ffffff" opacity="1" data-original="#000000" class=""></path><path d="M16 2C8.268 2 2 8.268 2 16s6.268 14 14 14 14-6.268 14-14S23.732 2 16 2zm0 23.015c-4.971 0-9.015-4.044-9.015-9.015S11.029 6.985 16 6.985s9.015 4.044 9.015 9.015-4.044 9.015-9.015 9.015z" fill="#ffffff" opacity="1" data-original="#000000" class=""></path><path d="M20.215 17c-.094 1.937-.46 3.817-1.089 5.27A7.018 7.018 0 0 0 22.934 17zM11.785 17h-2.72a7.02 7.02 0 0 0 3.808 5.27c-.628-1.453-.994-3.333-1.088-5.27z" fill="#ffffff" opacity="1" data-original="#000000" class=""></path></g></svg>